<mxfile host="app.diagrams.net" modified="2023-05-20T04:27:32.669Z" agent="Mozilla/5.0 (Macintosh; Intel Mac OS X 10_15_7) AppleWebKit/605.1.15 (KHTML, like Gecko) Version/15.3 Safari/605.1.15" etag="rKwvTuGAC59JwBRp8ZUz" version="21.2.9" type="github">
  <diagram name="第 1 页" id="_tdODql-RHOwF0bnwexH">
    <mxGraphModel dx="1907" dy="758" grid="1" gridSize="10" guides="1" tooltips="1" connect="1" arrows="1" fold="1" page="1" pageScale="1" pageWidth="827" pageHeight="1169" math="0" shadow="0">
      <root>
        <mxCell id="0" />
        <mxCell id="1" parent="0" />
        <mxCell id="1udKDLczhn83nqekfiIC-46" value="" style="rounded=0;whiteSpace=wrap;html=1;" parent="1" vertex="1">
          <mxGeometry x="-95" y="870" width="1235" height="940" as="geometry" />
        </mxCell>
        <mxCell id="6Xqe4w2kYzw0qAbWdILb-1" value="" style="rounded=0;whiteSpace=wrap;html=1;" parent="1" vertex="1">
          <mxGeometry x="25" y="140" width="1020" height="700" as="geometry" />
        </mxCell>
        <mxCell id="6Xqe4w2kYzw0qAbWdILb-2" value="" style="endArrow=none;html=1;rounded=0;exitX=0;exitY=0.5;exitDx=0;exitDy=0;entryX=1;entryY=0.5;entryDx=0;entryDy=0;dashed=1;" parent="1" source="6Xqe4w2kYzw0qAbWdILb-1" target="6Xqe4w2kYzw0qAbWdILb-1" edge="1">
          <mxGeometry width="50" height="50" relative="1" as="geometry">
            <mxPoint x="390" y="450" as="sourcePoint" />
            <mxPoint x="440" y="400" as="targetPoint" />
          </mxGeometry>
        </mxCell>
        <mxCell id="6Xqe4w2kYzw0qAbWdILb-25" style="rounded=0;orthogonalLoop=1;jettySize=auto;html=1;exitX=0.5;exitY=1;exitDx=0;exitDy=0;entryX=0.5;entryY=0;entryDx=0;entryDy=0;strokeColor=default;endArrow=none;endFill=0;" parent="1" source="6Xqe4w2kYzw0qAbWdILb-3" target="6Xqe4w2kYzw0qAbWdILb-8" edge="1">
          <mxGeometry relative="1" as="geometry" />
        </mxCell>
        <mxCell id="6Xqe4w2kYzw0qAbWdILb-26" style="rounded=0;orthogonalLoop=1;jettySize=auto;html=1;exitX=0.5;exitY=1;exitDx=0;exitDy=0;entryX=0.5;entryY=0;entryDx=0;entryDy=0;endArrow=none;endFill=0;" parent="1" source="6Xqe4w2kYzw0qAbWdILb-3" target="6Xqe4w2kYzw0qAbWdILb-6" edge="1">
          <mxGeometry relative="1" as="geometry" />
        </mxCell>
        <mxCell id="6Xqe4w2kYzw0qAbWdILb-3" value="&lt;font style=&quot;font-size: 19px;&quot;&gt;Serial&lt;br&gt;串行&lt;br&gt;标记-复制&lt;br&gt;&lt;/font&gt;" style="rounded=0;whiteSpace=wrap;html=1;flipV=1;flipH=1;" parent="1" vertex="1">
          <mxGeometry x="60" y="206" width="250" height="150" as="geometry" />
        </mxCell>
        <mxCell id="6Xqe4w2kYzw0qAbWdILb-27" style="rounded=0;orthogonalLoop=1;jettySize=auto;html=1;exitX=0.5;exitY=1;exitDx=0;exitDy=0;entryX=0.5;entryY=0;entryDx=0;entryDy=0;endArrow=none;endFill=0;" parent="1" source="6Xqe4w2kYzw0qAbWdILb-4" target="6Xqe4w2kYzw0qAbWdILb-8" edge="1">
          <mxGeometry relative="1" as="geometry" />
        </mxCell>
        <mxCell id="6Xqe4w2kYzw0qAbWdILb-4" value="&lt;font style=&quot;font-size: 16px;&quot;&gt;ParNew&lt;br&gt;它是Serial的多线程版本&lt;br&gt;标记-复制&lt;/font&gt;" style="rounded=0;whiteSpace=wrap;html=1;flipV=1;flipH=1;" parent="1" vertex="1">
          <mxGeometry x="390" y="206" width="250" height="150" as="geometry" />
        </mxCell>
        <mxCell id="6Xqe4w2kYzw0qAbWdILb-28" style="rounded=0;orthogonalLoop=1;jettySize=auto;html=1;exitX=0.5;exitY=1;exitDx=0;exitDy=0;entryX=0.5;entryY=0;entryDx=0;entryDy=0;endArrow=none;endFill=0;" parent="1" source="6Xqe4w2kYzw0qAbWdILb-5" target="6Xqe4w2kYzw0qAbWdILb-6" edge="1">
          <mxGeometry relative="1" as="geometry" />
        </mxCell>
        <mxCell id="6Xqe4w2kYzw0qAbWdILb-29" style="edgeStyle=orthogonalEdgeStyle;rounded=0;orthogonalLoop=1;jettySize=auto;html=1;exitX=0.5;exitY=1;exitDx=0;exitDy=0;endArrow=none;endFill=0;" parent="1" source="6Xqe4w2kYzw0qAbWdILb-5" target="6Xqe4w2kYzw0qAbWdILb-7" edge="1">
          <mxGeometry relative="1" as="geometry" />
        </mxCell>
        <mxCell id="6Xqe4w2kYzw0qAbWdILb-5" value="&lt;font style=&quot;font-size: 16px;&quot;&gt;Parallel Scavenge&lt;br&gt;多线程&lt;br&gt;标记复制&lt;/font&gt;" style="rounded=0;whiteSpace=wrap;html=1;flipV=1;flipH=1;" parent="1" vertex="1">
          <mxGeometry x="730" y="206" width="250" height="150" as="geometry" />
        </mxCell>
        <mxCell id="6Xqe4w2kYzw0qAbWdILb-6" value="&lt;font style=&quot;font-size: 16px;&quot;&gt;Serial &amp;nbsp;Old&lt;br&gt;是Serial的老年代版本&lt;br&gt;标记-整理&lt;/font&gt;" style="rounded=0;whiteSpace=wrap;html=1;flipH=1;flipV=1;" parent="1" vertex="1">
          <mxGeometry x="390" y="600" width="250" height="150" as="geometry" />
        </mxCell>
        <mxCell id="6Xqe4w2kYzw0qAbWdILb-7" value="&lt;font style=&quot;font-size: 15px;&quot;&gt;Parallel Old&lt;br&gt;是Parallel Scavenge的老年代版本&lt;br&gt;标记-整理&lt;br&gt;&lt;/font&gt;" style="rounded=0;whiteSpace=wrap;html=1;flipH=1;flipV=1;" parent="1" vertex="1">
          <mxGeometry x="730" y="600" width="250" height="150" as="geometry" />
        </mxCell>
        <mxCell id="6Xqe4w2kYzw0qAbWdILb-30" style="edgeStyle=orthogonalEdgeStyle;rounded=0;orthogonalLoop=1;jettySize=auto;html=1;exitX=0.5;exitY=1;exitDx=0;exitDy=0;entryX=0.524;entryY=0;entryDx=0;entryDy=0;entryPerimeter=0;" parent="1" source="6Xqe4w2kYzw0qAbWdILb-8" target="6Xqe4w2kYzw0qAbWdILb-6" edge="1">
          <mxGeometry relative="1" as="geometry" />
        </mxCell>
        <mxCell id="6Xqe4w2kYzw0qAbWdILb-8" value="&lt;font style=&quot;font-size: 17px;&quot;&gt;CMS收集器&lt;br&gt;标记-清除&lt;br&gt;&lt;/font&gt;" style="rounded=0;whiteSpace=wrap;html=1;flipH=1;flipV=1;" parent="1" vertex="1">
          <mxGeometry x="60" y="600" width="250" height="150" as="geometry" />
        </mxCell>
        <mxCell id="6Xqe4w2kYzw0qAbWdILb-32" value="&lt;font style=&quot;font-size: 21px;&quot;&gt;Young Generation&lt;/font&gt;" style="rounded=0;whiteSpace=wrap;html=1;strokeWidth=1;strokeColor=#ffffff;" parent="1" vertex="1">
          <mxGeometry x="420" y="150" width="286" height="44" as="geometry" />
        </mxCell>
        <mxCell id="6Xqe4w2kYzw0qAbWdILb-33" value="&lt;font style=&quot;font-size: 21px;&quot;&gt;Old Generation&lt;/font&gt;" style="rounded=0;whiteSpace=wrap;html=1;strokeWidth=1;strokeColor=#ffffff;" parent="1" vertex="1">
          <mxGeometry x="392" y="780" width="286" height="44" as="geometry" />
        </mxCell>
        <mxCell id="1udKDLczhn83nqekfiIC-1" value="" style="rounded=0;whiteSpace=wrap;html=1;fillColor=#b1ddf0;strokeColor=#10739e;" parent="1" vertex="1">
          <mxGeometry x="182.5" y="920" width="767.5" height="690" as="geometry" />
        </mxCell>
        <mxCell id="1udKDLczhn83nqekfiIC-2" value="" style="rounded=0;whiteSpace=wrap;html=1;fillColor=#008a00;fontColor=#ffffff;strokeColor=#005700;" parent="1" vertex="1">
          <mxGeometry x="332.5" y="965" width="460" height="150" as="geometry" />
        </mxCell>
        <mxCell id="1udKDLczhn83nqekfiIC-3" value="运行时数据区JDK1.8" style="text;html=1;align=center;verticalAlign=middle;resizable=0;points=[];autosize=1;strokeColor=none;fillColor=none;" parent="1" vertex="1">
          <mxGeometry x="498" y="920" width="130" height="30" as="geometry" />
        </mxCell>
        <mxCell id="1udKDLczhn83nqekfiIC-5" value="" style="rounded=1;whiteSpace=wrap;html=1;fillColor=#dae8fc;strokeColor=#6c8ebf;" parent="1" vertex="1">
          <mxGeometry x="460" y="980" width="210" height="120" as="geometry" />
        </mxCell>
        <mxCell id="1udKDLczhn83nqekfiIC-4" value="堆&lt;br&gt;Heap" style="text;html=1;align=center;verticalAlign=middle;resizable=0;points=[];autosize=1;strokeColor=none;fillColor=none;" parent="1" vertex="1">
          <mxGeometry x="540" y="990" width="50" height="40" as="geometry" />
        </mxCell>
        <mxCell id="1udKDLczhn83nqekfiIC-8" value="" style="rounded=1;whiteSpace=wrap;html=1;fillColor=#fff2cc;strokeColor=#d6b656;" parent="1" vertex="1">
          <mxGeometry x="495" y="1030" width="155" height="60" as="geometry" />
        </mxCell>
        <mxCell id="1udKDLczhn83nqekfiIC-9" value="字符串常量池和静态变量&lt;br&gt;String Constant Pool" style="text;html=1;align=center;verticalAlign=middle;resizable=0;points=[];autosize=1;strokeColor=none;fillColor=none;" parent="1" vertex="1">
          <mxGeometry x="485" y="1040" width="160" height="40" as="geometry" />
        </mxCell>
        <mxCell id="1udKDLczhn83nqekfiIC-10" value="" style="rounded=1;whiteSpace=wrap;html=1;fillColor=#b0e3e6;strokeColor=#0e8088;" parent="1" vertex="1">
          <mxGeometry x="340" y="1169" width="170" height="251" as="geometry" />
        </mxCell>
        <mxCell id="1udKDLczhn83nqekfiIC-11" value="线程&lt;br&gt;Thread" style="text;html=1;strokeColor=none;fillColor=none;align=center;verticalAlign=middle;whiteSpace=wrap;rounded=0;" parent="1" vertex="1">
          <mxGeometry x="395" y="1175" width="60" height="30" as="geometry" />
        </mxCell>
        <mxCell id="1udKDLczhn83nqekfiIC-38" style="rounded=0;orthogonalLoop=1;jettySize=auto;html=1;exitX=0;exitY=0.5;exitDx=0;exitDy=0;entryX=1;entryY=0.25;entryDx=0;entryDy=0;" parent="1" source="1udKDLczhn83nqekfiIC-12" target="1udKDLczhn83nqekfiIC-30" edge="1">
          <mxGeometry relative="1" as="geometry" />
        </mxCell>
        <mxCell id="1udKDLczhn83nqekfiIC-12" value="虚拟机栈&lt;br&gt;VM Stack" style="rounded=1;whiteSpace=wrap;html=1;fillColor=#6d8764;fontColor=#ffffff;strokeColor=#3A5431;" parent="1" vertex="1">
          <mxGeometry x="354" y="1210" width="146" height="50" as="geometry" />
        </mxCell>
        <mxCell id="1udKDLczhn83nqekfiIC-13" value="" style="rounded=1;whiteSpace=wrap;html=1;fillColor=#e51400;fontColor=#ffffff;strokeColor=#B20000;" parent="1" vertex="1">
          <mxGeometry x="354" y="1280" width="146" height="50" as="geometry" />
        </mxCell>
        <mxCell id="1udKDLczhn83nqekfiIC-14" value="本地方法栈&lt;br&gt;Native method Stack" style="text;html=1;align=center;verticalAlign=middle;resizable=0;points=[];autosize=1;strokeColor=none;fillColor=none;" parent="1" vertex="1">
          <mxGeometry x="360" y="1285" width="130" height="40" as="geometry" />
        </mxCell>
        <mxCell id="1udKDLczhn83nqekfiIC-15" value="" style="rounded=1;whiteSpace=wrap;html=1;fillColor=#e3c800;fontColor=#000000;strokeColor=#B09500;" parent="1" vertex="1">
          <mxGeometry x="354" y="1350" width="146" height="50" as="geometry" />
        </mxCell>
        <mxCell id="1udKDLczhn83nqekfiIC-16" value="程序计数器&lt;br&gt;Program Counter Register&amp;nbsp;" style="text;html=1;align=center;verticalAlign=middle;resizable=0;points=[];autosize=1;strokeColor=none;fillColor=none;" parent="1" vertex="1">
          <mxGeometry x="342" y="1350" width="170" height="40" as="geometry" />
        </mxCell>
        <mxCell id="1udKDLczhn83nqekfiIC-18" value="" style="rounded=1;whiteSpace=wrap;html=1;fillColor=#b0e3e6;strokeColor=#0e8088;" parent="1" vertex="1">
          <mxGeometry x="600" y="1175" width="170" height="251" as="geometry" />
        </mxCell>
        <mxCell id="1udKDLczhn83nqekfiIC-19" value="线程&lt;br&gt;Thread" style="text;html=1;strokeColor=none;fillColor=none;align=center;verticalAlign=middle;whiteSpace=wrap;rounded=0;" parent="1" vertex="1">
          <mxGeometry x="655" y="1181" width="60" height="30" as="geometry" />
        </mxCell>
        <mxCell id="1udKDLczhn83nqekfiIC-20" value="虚拟机栈&lt;br&gt;VM Stack" style="rounded=1;whiteSpace=wrap;html=1;fillColor=#6d8764;fontColor=#ffffff;strokeColor=#3A5431;" parent="1" vertex="1">
          <mxGeometry x="614" y="1216" width="146" height="50" as="geometry" />
        </mxCell>
        <mxCell id="1udKDLczhn83nqekfiIC-21" value="" style="rounded=1;whiteSpace=wrap;html=1;fillColor=#e51400;fontColor=#ffffff;strokeColor=#B20000;" parent="1" vertex="1">
          <mxGeometry x="614" y="1286" width="146" height="50" as="geometry" />
        </mxCell>
        <mxCell id="1udKDLczhn83nqekfiIC-22" value="本地方法栈&lt;br&gt;Native method Stack" style="text;html=1;align=center;verticalAlign=middle;resizable=0;points=[];autosize=1;strokeColor=none;fillColor=none;" parent="1" vertex="1">
          <mxGeometry x="620" y="1291" width="130" height="40" as="geometry" />
        </mxCell>
        <mxCell id="1udKDLczhn83nqekfiIC-23" value="" style="rounded=1;whiteSpace=wrap;html=1;fillColor=#e3c800;fontColor=#000000;strokeColor=#B09500;" parent="1" vertex="1">
          <mxGeometry x="614" y="1356" width="146" height="50" as="geometry" />
        </mxCell>
        <mxCell id="1udKDLczhn83nqekfiIC-24" value="程序计数器&lt;br&gt;Program Counter Register&amp;nbsp;" style="text;html=1;align=center;verticalAlign=middle;resizable=0;points=[];autosize=1;strokeColor=none;fillColor=none;" parent="1" vertex="1">
          <mxGeometry x="602" y="1356" width="170" height="40" as="geometry" />
        </mxCell>
        <mxCell id="1udKDLczhn83nqekfiIC-45" style="rounded=0;orthogonalLoop=1;jettySize=auto;html=1;exitX=0.5;exitY=1;exitDx=0;exitDy=0;entryX=0.5;entryY=0;entryDx=0;entryDy=0;" parent="1" source="1udKDLczhn83nqekfiIC-25" target="1udKDLczhn83nqekfiIC-43" edge="1">
          <mxGeometry relative="1" as="geometry" />
        </mxCell>
        <mxCell id="1udKDLczhn83nqekfiIC-25" value="" style="rounded=1;whiteSpace=wrap;html=1;fillColor=#fad7ac;strokeColor=#b46504;" parent="1" vertex="1">
          <mxGeometry x="304" y="1470" width="246" height="120" as="geometry" />
        </mxCell>
        <mxCell id="1udKDLczhn83nqekfiIC-26" value="元空间&lt;br&gt;MateSpace" style="text;html=1;align=center;verticalAlign=middle;resizable=0;points=[];autosize=1;strokeColor=none;fillColor=none;" parent="1" vertex="1">
          <mxGeometry x="387" y="1480" width="80" height="40" as="geometry" />
        </mxCell>
        <mxCell id="1udKDLczhn83nqekfiIC-27" value="运行时常量池&lt;br&gt;Runtime onstant Pool" style="rounded=1;whiteSpace=wrap;html=1;fillColor=#fad9d5;strokeColor=#ae4132;" parent="1" vertex="1">
          <mxGeometry x="360" y="1530" width="140" height="40" as="geometry" />
        </mxCell>
        <mxCell id="1udKDLczhn83nqekfiIC-28" value="" style="rounded=1;whiteSpace=wrap;html=1;fillColor=#6d8764;fontColor=#ffffff;strokeColor=#3A5431;" parent="1" vertex="1">
          <mxGeometry x="599" y="1470" width="228" height="115" as="geometry" />
        </mxCell>
        <mxCell id="1udKDLczhn83nqekfiIC-29" value="直接内存&lt;br&gt;Direct Memory" style="text;html=1;align=center;verticalAlign=middle;resizable=0;points=[];autosize=1;strokeColor=none;fillColor=none;" parent="1" vertex="1">
          <mxGeometry x="660" y="1510" width="100" height="40" as="geometry" />
        </mxCell>
        <mxCell id="1udKDLczhn83nqekfiIC-30" value="" style="rounded=1;whiteSpace=wrap;html=1;fillColor=#6D8764;fontColor=#ffffff;strokeColor=#3A5431;" parent="1" vertex="1">
          <mxGeometry x="-20" y="1156" width="150" height="274" as="geometry" />
        </mxCell>
        <mxCell id="1udKDLczhn83nqekfiIC-31" value="虚拟机栈" style="text;html=1;align=center;verticalAlign=middle;resizable=0;points=[];autosize=1;strokeColor=none;fillColor=none;" parent="1" vertex="1">
          <mxGeometry x="20" y="1156" width="70" height="30" as="geometry" />
        </mxCell>
        <mxCell id="1udKDLczhn83nqekfiIC-32" value="" style="rounded=1;whiteSpace=wrap;html=1;fillColor=#d5e8d4;strokeColor=#82b366;" parent="1" vertex="1">
          <mxGeometry y="1182" width="110" height="198" as="geometry" />
        </mxCell>
        <mxCell id="1udKDLczhn83nqekfiIC-33" value="栈帧" style="text;html=1;align=center;verticalAlign=middle;resizable=0;points=[];autosize=1;strokeColor=none;fillColor=none;" parent="1" vertex="1">
          <mxGeometry x="30" y="1186" width="50" height="30" as="geometry" />
        </mxCell>
        <mxCell id="1udKDLczhn83nqekfiIC-34" value="局部变量表" style="rounded=1;whiteSpace=wrap;html=1;" parent="1" vertex="1">
          <mxGeometry x="10" y="1211" width="90" height="29" as="geometry" />
        </mxCell>
        <mxCell id="1udKDLczhn83nqekfiIC-35" value="操作数栈" style="rounded=1;whiteSpace=wrap;html=1;" parent="1" vertex="1">
          <mxGeometry x="10" y="1252" width="90" height="28" as="geometry" />
        </mxCell>
        <mxCell id="1udKDLczhn83nqekfiIC-36" value="动态链接" style="rounded=1;whiteSpace=wrap;html=1;" parent="1" vertex="1">
          <mxGeometry x="10" y="1291" width="90" height="29" as="geometry" />
        </mxCell>
        <mxCell id="1udKDLczhn83nqekfiIC-37" value="方法返回地址" style="rounded=1;whiteSpace=wrap;html=1;" parent="1" vertex="1">
          <mxGeometry x="10" y="1331" width="90" height="29" as="geometry" />
        </mxCell>
        <mxCell id="1udKDLczhn83nqekfiIC-43" value="&lt;font style=&quot;font-size: 9px;&quot;&gt;&amp;nbsp;&lt;span style=&quot;font-weight: 600; caret-color: rgb(44, 62, 80); color: rgb(44, 62, 80); font-family: -apple-system, BlinkMacSystemFont, &amp;quot;Segoe UI&amp;quot;, Roboto, Oxygen, Ubuntu, Cantarell, &amp;quot;Fira Sans&amp;quot;, &amp;quot;Droid Sans&amp;quot;, &amp;quot;Helvetica Neue&amp;quot;, STHeiti, &amp;quot;Microsoft YaHei&amp;quot;, SimSun, sans-serif; text-align: justify;&quot;&gt;类信息、字段信息、方法信息、常量、静态变量、即时编译器编译后的代码缓存等数据&lt;/span&gt;。&lt;br&gt;Class 文件中除了有类的版本、字段、方法、接口等描述信息外，还有用于存放编译期生成的&lt;b&gt;&lt;i&gt;各种字面量（Literal）&lt;/i&gt;&lt;/b&gt;和&lt;b&gt;&lt;i&gt;符号引用（Symbolic Reference）&lt;/i&gt;&lt;/b&gt;的 常量池表(Constant Pool Table)&amp;nbsp;&lt;br&gt;&lt;span style=&quot;caret-color: rgb(44, 62, 80); color: rgb(44, 62, 80); font-family: -apple-system, BlinkMacSystemFont, &amp;quot;Segoe UI&amp;quot;, Roboto, Oxygen, Ubuntu, Cantarell, &amp;quot;Fira Sans&amp;quot;, &amp;quot;Droid Sans&amp;quot;, &amp;quot;Helvetica Neue&amp;quot;, STHeiti, &amp;quot;Microsoft YaHei&amp;quot;, SimSun, sans-serif; text-align: justify; background-color: rgb(255, 255, 255);&quot;&gt;&lt;br&gt;&lt;/span&gt;&lt;/font&gt;" style="ellipse;whiteSpace=wrap;html=1;" parent="1" vertex="1">
          <mxGeometry x="17" y="1670" width="403" height="130" as="geometry" />
        </mxCell>
        <mxCell id="WcxZRaSRwMAs-RTfd-xi-1" value="" style="rounded=0;whiteSpace=wrap;html=1;fillColor=#d5e8d4;strokeColor=#82b366;fontSize=13;" vertex="1" parent="1">
          <mxGeometry x="1460" y="1040" width="800" height="1500" as="geometry" />
        </mxCell>
        <mxCell id="WcxZRaSRwMAs-RTfd-xi-4" value="" style="rounded=1;whiteSpace=wrap;html=1;fillColor=#dae8fc;strokeColor=#6c8ebf;fontSize=13;" vertex="1" parent="1">
          <mxGeometry x="1560" y="1110" width="640" height="130" as="geometry" />
        </mxCell>
        <mxCell id="WcxZRaSRwMAs-RTfd-xi-5" value="&lt;font style=&quot;font-size: 13px;&quot;&gt;验证&lt;/font&gt;" style="text;html=1;strokeColor=none;fillColor=none;align=center;verticalAlign=middle;whiteSpace=wrap;rounded=0;fontSize=13;" vertex="1" parent="1">
          <mxGeometry x="1850" y="1109" width="90" height="31" as="geometry" />
        </mxCell>
        <mxCell id="WcxZRaSRwMAs-RTfd-xi-6" value="&lt;font style=&quot;font-size: 13px;&quot;&gt;类加载过程&lt;/font&gt;" style="text;html=1;strokeColor=none;fillColor=none;align=center;verticalAlign=middle;whiteSpace=wrap;rounded=0;fontSize=13;" vertex="1" parent="1">
          <mxGeometry x="1830" y="1050" width="140" height="40" as="geometry" />
        </mxCell>
        <mxCell id="WcxZRaSRwMAs-RTfd-xi-7" value="" style="rounded=1;whiteSpace=wrap;html=1;fillColor=#dae8fc;strokeColor=#6c8ebf;fontSize=13;" vertex="1" parent="1">
          <mxGeometry x="1560" y="1280" width="640" height="640" as="geometry" />
        </mxCell>
        <mxCell id="WcxZRaSRwMAs-RTfd-xi-9" value="&lt;font style=&quot;font-size: 13px;&quot;&gt;链接&lt;/font&gt;" style="text;html=1;strokeColor=none;fillColor=none;align=center;verticalAlign=middle;whiteSpace=wrap;rounded=0;fontSize=13;" vertex="1" parent="1">
          <mxGeometry x="1830" y="1285" width="125" height="39" as="geometry" />
        </mxCell>
        <mxCell id="WcxZRaSRwMAs-RTfd-xi-10" value="" style="rounded=1;whiteSpace=wrap;html=1;fillColor=#dae8fc;strokeColor=#6c8ebf;fontSize=13;" vertex="1" parent="1">
          <mxGeometry x="1560" y="1970" width="650" height="230" as="geometry" />
        </mxCell>
        <mxCell id="WcxZRaSRwMAs-RTfd-xi-11" value="&lt;font style=&quot;font-size: 13px;&quot;&gt;初始化&lt;/font&gt;" style="text;html=1;strokeColor=none;fillColor=none;align=center;verticalAlign=middle;whiteSpace=wrap;rounded=0;fontSize=13;" vertex="1" parent="1">
          <mxGeometry x="1843" y="1970" width="99" height="40" as="geometry" />
        </mxCell>
        <mxCell id="WcxZRaSRwMAs-RTfd-xi-12" value="&lt;ol style=&quot;font-size: 13px; text-align: start; line-height: 1.6; overflow-wrap: break-word; padding-inline-start: 1.2em; caret-color: rgb(44, 62, 80); color: rgb(44, 62, 80); font-family: -apple-system, BlinkMacSystemFont, &amp;quot;Segoe UI&amp;quot;, Roboto, Oxygen, Ubuntu, Cantarell, &amp;quot;Fira Sans&amp;quot;, &amp;quot;Droid Sans&amp;quot;, &amp;quot;Helvetica Neue&amp;quot;, STHeiti, &amp;quot;Microsoft YaHei&amp;quot;, SimSun, sans-serif;&quot;&gt;&lt;li style=&quot;font-size: 13px;&quot;&gt;通过全类名获取定义此类的二进制字节流。&lt;/li&gt;&lt;li style=&quot;font-size: 13px;&quot;&gt;将字节流所代表的静态存储结构转换为方法区的运行时数据结构。&lt;/li&gt;&lt;li style=&quot;font-size: 13px;&quot;&gt;在内存中生成一个代表该类的&amp;nbsp;&lt;code style=&quot;margin: 0px; padding: 0.2rem 0.4rem; border-top-left-radius: 5px; border-top-right-radius: 5px; border-bottom-right-radius: 5px; border-bottom-left-radius: 5px; background-color: rgba(127, 127, 127, 0.12); font-size: 13px; overflow-wrap: break-word; font-family: var(--font-family-mono); transition: background var(--color-transition),color var(--color-transition);&quot;&gt;Class&lt;/code&gt;&amp;nbsp;对象，作为方法区这些数据的访问入口。&lt;/li&gt;&lt;/ol&gt;" style="text;html=1;strokeColor=none;fillColor=none;align=center;verticalAlign=middle;whiteSpace=wrap;rounded=0;fontSize=13;" vertex="1" parent="1">
          <mxGeometry x="1600" y="1140" width="580" height="100" as="geometry" />
        </mxCell>
        <mxCell id="WcxZRaSRwMAs-RTfd-xi-13" value="" style="rounded=1;whiteSpace=wrap;html=1;fillColor=#e1d5e7;strokeColor=#9673a6;fontSize=13;" vertex="1" parent="1">
          <mxGeometry x="1620" y="1324" width="540" height="146" as="geometry" />
        </mxCell>
        <mxCell id="WcxZRaSRwMAs-RTfd-xi-14" value="&lt;font style=&quot;font-size: 13px;&quot;&gt;验证&lt;/font&gt;" style="text;html=1;strokeColor=none;fillColor=none;align=center;verticalAlign=middle;whiteSpace=wrap;rounded=0;fontSize=13;" vertex="1" parent="1">
          <mxGeometry x="1858.75" y="1326" width="67.5" height="24" as="geometry" />
        </mxCell>
        <mxCell id="WcxZRaSRwMAs-RTfd-xi-17" value="&lt;ol style=&quot;font-size: 13px; line-height: 1.6; overflow-wrap: break-word; padding-inline-start: 1.2em; caret-color: rgb(44, 62, 80); color: rgb(44, 62, 80); font-family: -apple-system, BlinkMacSystemFont, &amp;quot;Segoe UI&amp;quot;, Roboto, Oxygen, Ubuntu, Cantarell, &amp;quot;Fira Sans&amp;quot;, &amp;quot;Droid Sans&amp;quot;, &amp;quot;Helvetica Neue&amp;quot;, STHeiti, &amp;quot;Microsoft YaHei&amp;quot;, SimSun, sans-serif;&quot;&gt;&lt;li style=&quot;font-size: 13px;&quot;&gt;文件格式验证（Class 文件格式检查）&lt;/li&gt;&lt;li style=&quot;font-size: 13px;&quot;&gt;元数据验证（字节码语义检查）&lt;/li&gt;&lt;li style=&quot;font-size: 13px;&quot;&gt;字节码验证（程序语义检查）&lt;/li&gt;&lt;li style=&quot;font-size: 13px;&quot;&gt;符号引用验证（类的正确性检查）&lt;/li&gt;&lt;/ol&gt;" style="text;html=1;strokeColor=none;fillColor=none;align=left;verticalAlign=middle;whiteSpace=wrap;rounded=0;fontSize=13;" vertex="1" parent="1">
          <mxGeometry x="1744" y="1356" width="302" height="100" as="geometry" />
        </mxCell>
        <mxCell id="WcxZRaSRwMAs-RTfd-xi-18" value="" style="rounded=1;whiteSpace=wrap;html=1;fillColor=#e1d5e7;strokeColor=#9673a6;fontSize=13;" vertex="1" parent="1">
          <mxGeometry x="1624" y="1510" width="526" height="130" as="geometry" />
        </mxCell>
        <mxCell id="WcxZRaSRwMAs-RTfd-xi-20" value="&lt;font style=&quot;font-size: 13px;&quot;&gt;准备&lt;/font&gt;" style="text;html=1;strokeColor=none;fillColor=none;align=center;verticalAlign=middle;whiteSpace=wrap;rounded=0;fontSize=13;" vertex="1" parent="1">
          <mxGeometry x="1850" y="1512.5" width="60" height="30" as="geometry" />
        </mxCell>
        <mxCell id="WcxZRaSRwMAs-RTfd-xi-21" value="正式为类变量分配内存并设着类变量初始值阶段，如果类变量被final修饰，则直接赋值" style="text;html=1;strokeColor=none;fillColor=none;align=center;verticalAlign=middle;whiteSpace=wrap;rounded=0;fontSize=13;" vertex="1" parent="1">
          <mxGeometry x="1710" y="1570" width="350" height="40" as="geometry" />
        </mxCell>
        <mxCell id="WcxZRaSRwMAs-RTfd-xi-22" value="" style="rounded=1;whiteSpace=wrap;html=1;fillColor=#e1d5e7;strokeColor=#9673a6;fontSize=13;" vertex="1" parent="1">
          <mxGeometry x="1620" y="1694" width="530" height="146" as="geometry" />
        </mxCell>
        <mxCell id="WcxZRaSRwMAs-RTfd-xi-23" value="&lt;font style=&quot;font-size: 13px;&quot;&gt;解析&lt;/font&gt;" style="text;html=1;align=center;verticalAlign=middle;resizable=0;points=[];autosize=1;strokeColor=none;fillColor=none;fontSize=13;" vertex="1" parent="1">
          <mxGeometry x="1858.75" y="1694" width="50" height="30" as="geometry" />
        </mxCell>
        <mxCell id="WcxZRaSRwMAs-RTfd-xi-25" value="解析阶段是虚拟机将常量池内的符号引用替换为直接引用的过程。&lt;br style=&quot;font-size: 13px;&quot;&gt;解析动作主要针对类或接口、字段、类方法、接口方法、方法类型、方法句柄和调用限定符7类符号引用进行" style="text;html=1;strokeColor=none;fillColor=none;align=center;verticalAlign=middle;whiteSpace=wrap;rounded=0;fontSize=13;" vertex="1" parent="1">
          <mxGeometry x="1638" y="1713" width="452" height="77" as="geometry" />
        </mxCell>
        <mxCell id="WcxZRaSRwMAs-RTfd-xi-26" value="初始化阶段是执行初始化方法的过程，是类加载的最后一步，这一步JVM才开始真正执行类中定义的Java程序代码" style="text;html=1;strokeColor=none;fillColor=none;align=left;verticalAlign=middle;whiteSpace=wrap;rounded=0;fontSize=13;" vertex="1" parent="1">
          <mxGeometry x="1690" y="2000" width="380" height="30" as="geometry" />
        </mxCell>
        <mxCell id="WcxZRaSRwMAs-RTfd-xi-27" value="1.当遇到new、getstatic、putstatic、invokestatic这4条字节码指令时&lt;br style=&quot;font-size: 13px;&quot;&gt;2.使用java.lang.reflect包的方法对类进行反射调用时&lt;br style=&quot;font-size: 13px;&quot;&gt;3.初始化一个类，如果其父类还未初始化，则先出发该父类的初始化&lt;br style=&quot;font-size: 13px;&quot;&gt;4.当虚拟机启动时，用户定义的主类&lt;br style=&quot;font-size: 13px;&quot;&gt;5.MethodHandle 和 VarHandle 可以看作是轻量级的反射调用机制，而要想使用这 2 个调用， 就必须先使用 findStaticVarHandle 来初始化要调用的类。&lt;br style=&quot;font-size: 13px;&quot;&gt;6.被default关键字修饰的接口方法。如果有这个接口的实现类发生了初始化，那该接口要在其之间被初始化" style="text;html=1;strokeColor=none;fillColor=none;align=left;verticalAlign=middle;whiteSpace=wrap;rounded=0;fontSize=13;" vertex="1" parent="1">
          <mxGeometry x="1638" y="2060" width="492" height="120" as="geometry" />
        </mxCell>
        <mxCell id="WcxZRaSRwMAs-RTfd-xi-29" value="" style="rounded=1;whiteSpace=wrap;html=1;fillColor=#dae8fc;strokeColor=#6c8ebf;fontSize=13;" vertex="1" parent="1">
          <mxGeometry x="1565" y="2250" width="650" height="230" as="geometry" />
        </mxCell>
        <mxCell id="WcxZRaSRwMAs-RTfd-xi-30" value="&lt;font style=&quot;font-size: 13px;&quot;&gt;类卸载&lt;/font&gt;" style="text;html=1;strokeColor=none;fillColor=none;align=center;verticalAlign=middle;whiteSpace=wrap;rounded=0;fontSize=13;" vertex="1" parent="1">
          <mxGeometry x="1850" y="2250" width="60" height="30" as="geometry" />
        </mxCell>
        <mxCell id="WcxZRaSRwMAs-RTfd-xi-31" value="1.该类的所有的实例对象都被GC、也就是说堆不存在该类的实例&lt;br style=&quot;font-size: 13px;&quot;&gt;2.该类没有在其他任何地方被引用&lt;br style=&quot;font-size: 13px;&quot;&gt;3.该类的类加载器的实例已被GC" style="text;html=1;strokeColor=none;fillColor=none;align=left;verticalAlign=middle;whiteSpace=wrap;rounded=0;fontSize=13;" vertex="1" parent="1">
          <mxGeometry x="1650" y="2290" width="460" height="110" as="geometry" />
        </mxCell>
      </root>
    </mxGraphModel>
  </diagram>
</mxfile>
